{
  "accessors": [
    {
      "bufferView": 2,
      "componentType": 5126,
      "count": 65532,
      "max": [
        1.9682265520095825,
        8.4385032653808594,
        2.937042236328125
      ],
      "min": [
        -1.6113302707672119,
        5.336890697479248,
        -0.68545806407928467
      ],
      "type": "VEC3"
    },
    {
      "bufferView": 2,
      "byteOffset": 786384,
      "componentType": 5126,
      "count": 65532,
      "max": [
        0.99999243021011353,
        0.99999672174453735,
        0.99998348951339722
      ],
      "min": [
        -0.99997568130493164,
        -1,
        -0.99970471858978271
      ],
      "type": "VEC3"
    },
    {
      "bufferView": 1,
      "componentType": 5126,
      "count": 65532,
      "max": [
        0.97587954998016357,
        0.99868583679199219
      ],
      "min": [
        0.0038624268490821123,
        0.0030318377539515495
      ],
      "type": "VEC2"
    },
    {
      "bufferView": 0,
      "componentType": 5125,
      "count": 361980,
      "max": [
        65531
      ],
      "min": [
        0
      ],
      "type": "SCALAR"
    },
    {
      "bufferView": 2,
      "byteOffset": 1572768,
      "componentType": 5126,
      "count": 65532,
      "max": [
        1.9756289720535278,
        7.0881285667419434,
        2.2832169532775879
      ],
      "min": [
        -1.671617865562439,
        4.7940616607666016,
        -0.70426613092422485
      ],
      "type": "VEC3"
    },
    {
      "bufferView": 2,
      "byteOffset": 2359152,
      "componentType": 5126,
      "count": 65532,
      "max": [
        0.99999022483825684,
        0.99994415044784546,
        0.99991846084594727
      ],
      "min": [
        -0.9999617338180542,
        -0.99954169988632202,
        -0.99995589256286621
      ],
      "type": "VEC3"
    },
    {
      "bufferView": 1,
      "byteOffset": 524256,
      "componentType": 5126,
      "count": 65532,
      "max": [
        0.99481236934661865,
        0.99841010570526123
      ],
      "min": [
        0.0025147420819848776,
        0.0023833531886339188
      ],
      "type": "VEC2"
    },
    {
      "bufferView": 0,
      "byteOffset": 1447920,
      "componentType": 5125,
      "count": 343944,
      "max": [
        65531
      ],
      "min": [
        0
      ],
      "type": "SCALAR"
    },
    {
      "bufferView": 2,
      "byteOffset": 3145536,
      "componentType": 5126,
      "count": 10386,
      "max": [
        1.2991697788238525,
        5.3512020111083984,
        1.9207005500793457
      ],
      "min": [
        -1.0629799365997314,
        4.7518124580383301,
        -0.61267709732055664
      ],
      "type": "VEC3"
    },
    {
      "bufferView": 2,
      "byteOffset": 3270168,
      "componentType": 5126,
      "count": 10386,
      "max": [
        0.90063565969467163,
        0.99169498682022095,
        0.88425570726394653
      ],
      "min": [
        -0.84049862623214722,
        -0.99998408555984497,
        -0.91829288005828857
      ],
      "type": "VEC3"
    },
    {
      "bufferView": 1,
      "byteOffset": 1048512,
      "componentType": 5126,
      "count": 10386,
      "max": [
        0.89671462774276733,
        0.60424381494522095
      ],
      "min": [
        0.080672502517700195,
        0.06510867178440094
      ],
      "type": "VEC2"
    },
    {
      "bufferView": 0,
      "byteOffset": 2823696,
      "componentType": 5125,
      "count": 46962,
      "max": [
        10385
      ],
      "min": [
        0
      ],
      "type": "SCALAR"
    }
  ],
  "asset": {
    "extras": {
      "author": "Museo Nacional de Historia Natural de Chile (https://sketchfab.com/MNHNcl)",
      "license": "CC0-1.0 (http://creativecommons.org/publicdomain/zero/1.0/)",
      "source": "https://sketchfab.com/3d-models/aribalo-de-chile-central-53f6ab2f5ddb4665b092270688f0e03b",
      "title": "Aríbalo de Chile central"
    },
    "generator": "Sketchfab-7.79.0",
    "version": "2.0"
  },
  "bufferViews": [
    {
      "buffer": 0,
      "byteLength": 3011544,
      "byteOffset": 0,
      "name": "floatBufferViews",
      "target": 34963
    },
    {
      "buffer": 0,
      "byteLength": 1131600,
      "byteOffset": 3011544,
      "byteStride": 8,
      "name": "floatBufferViews",
      "target": 34962
    },
    {
      "buffer": 0,
      "byteLength": 3394800,
      "byteOffset": 4143144,
      "byteStride": 12,
      "name": "floatBufferViews",
      "target": 34962
    }
  ],
  "buffers": [
    {
      "byteLength": 7537944,
      "uri": "scene.bin"
    }
  ],
  "images": [
    {
      "uri": "textures/033AR.1001_baseColor.png"
    }
  ],
  "materials": [
    {
      "doubleSided": true,
      "emissiveFactor": [
        0,
        0,
        0
      ],
      "name": "033AR.1001",
      "pbrMetallicRoughness": {
        "baseColorFactor": [
          1,
          1,
          1,
          1
        ],
        "baseColorTexture": {
          "index": 0,
          "texCoord": 0
        },
        "metallicFactor": 0,
        "roughnessFactor": 1
      }
    }
  ],
  "meshes": [
    {
      "primitives": [
        {
          "attributes": {
            "NORMAL": 1,
            "POSITION": 0,
            "TEXCOORD_0": 2
          },
          "indices": 3,
          "material": 0,
          "mode": 4
        }
      ]
    },
    {
      "primitives": [
        {
          "attributes": {
            "NORMAL": 5,
            "POSITION": 4,
            "TEXCOORD_0": 6
          },
          "indices": 7,
          "material": 0,
          "mode": 4
        }
      ]
    },
    {
      "primitives": [
        {
          "attributes": {
            "NORMAL": 9,
            "POSITION": 8,
            "TEXCOORD_0": 10
          },
          "indices": 11,
          "material": 0,
          "mode": 4
        }
      ]
    }
  ],
  "nodes": [
    {
      "children": [
        1
      ],
      "name": "RootNode (gltf orientation matrix)",
      "rotation": [
        -0.70710678118654746,
        -0,
        -0,
        0.70710678118654757
      ]
    },
    {
      "children": [
        2
      ],
      "matrix": [
        -0.99636775255203247,
        0.075123816728591919,
        0.040096636861562729,
        0,
        -0.034011315554380417,
        -0.7827572226524353,
        0.62139707803726196,
        0,
        0.078067652881145477,
        0.61777627468109131,
        0.78246909379959106,
        0,
        0.44062620401382446,
        11.056458473205566,
        -3.8614547252655029,
        1
      ],
      "name": "RootNode (model correction matrix)"
    },
    {
      "children": [
        3,
        4,
        5
      ],
      "name": "033AR.obj.cleaner.materialmerger.gles"
    },
    {
      "mesh": 0,
      "name": ""
    },
    {
      "mesh": 1,
      "name": ""
    },
    {
      "mesh": 2,
      "name": ""
    }
  ],
  "samplers": [
    {
      "magFilter": 9729,
      "minFilter": 9987,
      "wrapS": 10497,
      "wrapT": 10497
    }
  ],
  "scene": 0,
  "scenes": [
    {
      "name": "OSG_Scene",
      "nodes": [
        0
      ]
    }
  ],
  "textures": [
    {
      "sampler": 0,
      "source": 0
    }
  ]
}

